<svg width="375" height="461" viewBox="0 0 375 461" fill="none" xmlns="http://www.w3.org/2000/svg">
<circle cx="89.5" cy="113.5" r="89.5" fill="#005BFF"/>
<path d="M308 418.2V420.2H310V418.2H308ZM308 332.34H310V330.34H308V332.34ZM281 332.34V330.34H279V332.34H281ZM281 388.5L281.392 390.461L283 390.14V388.5H281ZM182.72 418.2V420.2H184.72V418.2H182.72ZM182.72 390.12H184.72V388.12H182.72V390.12ZM165.44 361.34C191.848 361.34 207.252 375.496 223.354 390.245C239.4 404.943 256.118 420.2 284.78 420.2V416.2C257.822 416.2 242.14 402.027 226.056 387.295C210.028 372.614 193.572 357.34 165.44 357.34V361.34ZM284.78 420.2H308V416.2H284.78V420.2ZM310 418.2V332.34H306V418.2H310ZM308 330.34H281V334.34H308V330.34ZM279 332.34V388.5H283V332.34H279ZM280.608 386.539C279.483 386.764 278.331 386.77 276.95 386.77V390.77C278.269 390.77 279.817 390.776 281.392 390.461L280.608 386.539ZM276.95 386.77C269.84 386.77 263.067 383.388 255.814 377.933C248.521 372.447 241.151 365.203 232.606 357.702C215.668 342.835 194.812 327.64 164.36 327.64V331.64C193.308 331.64 213.222 346.01 229.967 360.708C238.263 367.99 245.963 375.528 253.41 381.129C260.896 386.761 268.535 390.77 276.95 390.77V386.77ZM164.36 327.64C148.932 327.64 136.498 331.497 127.909 339.371C119.29 347.271 114.84 358.94 114.84 373.92H118.84C118.84 359.74 123.03 349.269 130.611 342.319C138.222 335.343 149.548 331.64 164.36 331.64V327.64ZM114.84 373.92C114.84 388.9 119.29 400.569 127.909 408.469C136.498 416.343 148.932 420.2 164.36 420.2V416.2C149.548 416.2 138.222 412.497 130.611 405.521C123.03 398.571 118.84 388.1 118.84 373.92H114.84ZM164.36 420.2H182.72V416.2H164.36V420.2ZM184.72 418.2V390.12H180.72V418.2H184.72ZM182.72 388.12H162.47V392.12H182.72V388.12ZM162.47 388.12C155.968 388.12 151.883 386.684 149.429 384.48C147.017 382.316 145.84 379.101 145.84 374.73H141.84C141.84 379.809 143.228 384.289 146.756 387.457C150.242 390.586 155.472 392.12 162.47 392.12V388.12ZM145.84 374.73C145.84 370.316 146.903 367.177 149.524 365.042C152.257 362.816 157.083 361.34 165.44 361.34V357.34C156.787 357.34 150.813 358.834 146.998 361.94C143.072 365.138 141.84 369.694 141.84 374.73H145.84ZM162.47 281.879C155.968 281.879 151.883 280.443 149.429 278.24C147.017 276.075 145.84 272.86 145.84 268.489H141.84C141.84 273.569 143.228 278.048 146.756 281.216C150.242 284.345 155.472 285.879 162.47 285.879L162.47 281.879ZM145.84 268.489C145.84 264.119 147.017 260.903 149.429 258.739C151.883 256.535 155.968 255.099 162.47 255.099V251.099C155.472 251.099 150.242 252.633 146.756 255.762C143.228 258.93 141.84 263.41 141.84 268.489H145.84ZM162.47 255.099L264.53 255.099V251.099L162.47 251.099V255.099ZM264.53 255.099C271.032 255.099 275.117 256.535 277.571 258.739C279.983 260.903 281.16 264.119 281.16 268.489H285.16C285.16 263.41 283.772 258.93 280.244 255.762C276.758 252.633 271.528 251.099 264.53 251.099V255.099ZM281.16 268.489C281.16 272.86 279.983 276.075 277.571 278.24C275.117 280.443 271.032 281.879 264.53 281.879V285.879C271.528 285.879 276.758 284.345 280.244 281.216C283.772 278.048 285.16 273.569 285.16 268.489H281.16ZM264.53 281.879H162.47L162.47 285.879H264.53V281.879ZM262.64 315.579C278.094 315.579 290.529 311.507 299.111 303.425C307.712 295.326 312.16 283.468 312.16 268.489H308.16C308.16 282.671 303.968 293.357 296.369 300.513C288.751 307.687 277.426 311.579 262.64 311.579V315.579ZM312.16 268.489C312.16 253.511 307.712 241.652 299.111 233.553C290.529 225.472 278.094 221.399 262.64 221.399V225.399C277.426 225.399 288.751 229.292 296.369 236.465C303.968 243.621 308.16 254.308 308.16 268.489H312.16ZM262.64 221.399L164.36 221.399V225.399L262.64 225.399V221.399ZM164.36 221.399C148.906 221.399 136.471 225.472 127.889 233.553C119.288 241.652 114.84 253.511 114.84 268.489H118.84C118.84 254.308 123.032 243.621 130.631 236.465C138.249 229.292 149.574 225.399 164.36 225.399V221.399ZM114.84 268.489C114.84 283.468 119.288 295.326 127.889 303.425C136.471 311.507 148.906 315.579 164.36 315.579V311.579C149.574 311.579 138.249 307.687 130.631 300.513C123.032 293.357 118.84 282.671 118.84 268.489H114.84ZM164.36 315.579H262.64V311.579H164.36V315.579ZM162.47 174.828C155.968 174.828 151.883 173.392 149.429 171.189C147.017 169.024 145.84 165.809 145.84 161.438H141.84C141.84 166.518 143.228 170.997 146.756 174.165C150.242 177.295 155.472 178.828 162.47 178.828V174.828ZM145.84 161.438C145.84 157.068 147.017 153.852 149.429 151.688C151.883 149.485 155.968 148.048 162.47 148.048V144.048C155.472 144.048 150.242 145.582 146.756 148.711C143.228 151.879 141.84 156.359 141.84 161.438H145.84ZM162.47 148.048H264.53V144.048H162.47V148.048ZM264.53 148.048C271.032 148.048 275.117 149.485 277.571 151.688C279.983 153.852 281.16 157.068 281.16 161.438H285.16C285.16 156.359 283.772 151.879 280.244 148.711C276.758 145.582 271.528 144.048 264.53 144.048V148.048ZM281.16 161.438C281.16 165.809 279.983 169.024 277.571 171.189C275.117 173.392 271.032 174.828 264.53 174.828V178.828C271.528 178.828 276.758 177.295 280.244 174.165C283.772 170.997 285.16 166.518 285.16 161.438H281.16ZM264.53 174.828L162.47 174.828V178.828L264.53 178.828V174.828ZM262.64 208.528C278.094 208.528 290.529 204.456 299.111 196.374C307.712 188.276 312.16 176.417 312.16 161.438H308.16C308.16 175.62 303.968 186.306 296.369 193.462C288.751 200.636 277.426 204.528 262.64 204.528V208.528ZM312.16 161.438C312.16 146.46 307.712 134.601 299.111 126.502C290.529 118.421 278.094 114.348 262.64 114.348V118.348C277.426 118.348 288.751 122.241 296.369 129.414C303.968 136.571 308.16 147.257 308.16 161.438H312.16ZM262.64 114.348H164.36V118.348H262.64V114.348ZM164.36 114.348C148.906 114.348 136.471 118.421 127.889 126.502C119.288 134.601 114.84 146.46 114.84 161.438H118.84C118.84 147.257 123.032 136.571 130.631 129.414C138.249 122.241 149.574 118.348 164.36 118.348V114.348ZM114.84 161.438C114.84 176.417 119.288 188.276 127.889 196.374C136.471 204.456 148.906 208.528 164.36 208.528V204.528C149.574 204.528 138.249 200.636 130.631 193.462C123.032 186.306 118.84 175.62 118.84 161.438H114.84ZM164.36 208.528L262.64 208.528V204.528L164.36 204.528V208.528ZM119 98.9377H117V100.938H119V98.9377ZM146 98.9377V100.938H148V98.9377H146ZM146 39.8076L146.518 37.876L144 37.2002V39.8076H146ZM308 83.2776L307.482 85.2093L310 85.8851V83.2776H308ZM308 53.5777H310V52.0434L308.518 51.6459L308 53.5777ZM144.92 9.83765L145.438 7.90594L145.184 7.83765H144.92V9.83765ZM119 9.83765V7.83765H117V9.83765H119ZM119 100.938H146V96.9377H119V100.938ZM148 98.9377V39.8076H144V98.9377H148ZM145.482 41.7393L307.482 85.2093L308.518 81.346L146.518 37.876L145.482 41.7393ZM310 83.2776L310 53.5777H306L306 83.2776H310ZM308.518 51.6459L145.438 7.90594L144.402 11.7694L307.482 55.5094L308.518 51.6459ZM144.92 7.83765H119V11.8376H144.92V7.83765ZM117 9.83765L117 98.9377H121L121 9.83765H117Z" fill="#020D22"/>
<path d="M117.779 441.173V452H114.431V437.96H123.611V441.173H117.779ZM126.386 450.299C124.982 448.877 124.28 447.104 124.28 444.98C124.28 442.856 124.982 441.092 126.386 439.688C127.808 438.266 129.581 437.555 131.705 437.555C133.829 437.555 135.602 438.266 137.024 439.688C138.446 441.092 139.157 442.856 139.157 444.98C139.157 447.104 138.446 448.877 137.024 450.299C135.584 451.703 133.811 452.405 131.705 452.405C129.599 452.405 127.826 451.703 126.386 450.299ZM131.705 440.93C130.589 440.93 129.653 441.317 128.897 442.091C128.141 442.865 127.763 443.828 127.763 444.98C127.763 446.132 128.141 447.095 128.897 447.869C129.653 448.643 130.589 449.03 131.705 449.03C132.821 449.03 133.757 448.643 134.513 447.869C135.269 447.095 135.647 446.132 135.647 444.98C135.647 443.828 135.269 442.865 134.513 442.091C133.757 441.317 132.821 440.93 131.705 440.93ZM143.278 456.05H139.93V448.787H142.198C142.756 448.067 143.035 446.519 143.035 444.143V437.96H154.753V448.787H157.264V456.05H153.916V452H143.278V456.05ZM145.654 448.787H151.405V441.173H146.383V444.386C146.383 446.114 146.14 447.581 145.654 448.787ZM167.625 450.299C166.221 448.877 165.519 447.104 165.519 444.98C165.519 442.856 166.221 441.092 167.625 439.688C169.047 438.266 170.82 437.555 172.944 437.555C175.068 437.555 176.841 438.266 178.263 439.688C179.685 441.092 180.396 442.856 180.396 444.98C180.396 447.104 179.685 448.877 178.263 450.299C176.823 451.703 175.05 452.405 172.944 452.405C170.838 452.405 169.065 451.703 167.625 450.299ZM172.944 440.93C171.828 440.93 170.892 441.317 170.136 442.091C169.38 442.865 169.002 443.828 169.002 444.98C169.002 446.132 169.38 447.095 170.136 447.869C170.892 448.643 171.828 449.03 172.944 449.03C174.06 449.03 174.996 448.643 175.752 447.869C176.508 447.095 176.886 446.132 176.886 444.98C176.886 443.828 176.508 442.865 175.752 442.091C174.996 441.317 174.06 440.93 172.944 440.93ZM196.573 442.199L193.198 443.198C192.892 442.496 192.415 441.947 191.767 441.551C191.137 441.137 190.426 440.93 189.634 440.93C188.518 440.93 187.582 441.317 186.826 442.091C186.07 442.865 185.692 443.828 185.692 444.98C185.692 446.132 186.07 447.095 186.826 447.869C187.582 448.643 188.518 449.03 189.634 449.03C190.426 449.03 191.137 448.832 191.767 448.436C192.415 448.022 192.892 447.464 193.198 446.762L196.573 447.761C196.033 449.183 195.142 450.317 193.9 451.163C192.658 451.991 191.236 452.405 189.634 452.405C187.528 452.405 185.755 451.703 184.315 450.299C182.911 448.877 182.209 447.104 182.209 444.98C182.209 442.856 182.911 441.092 184.315 439.688C185.737 438.266 187.51 437.555 189.634 437.555C191.236 437.555 192.658 437.978 193.9 438.824C195.142 439.652 196.033 440.777 196.573 442.199ZM201.996 446.465V452H198.648V437.96H201.996V443.252H208.584V437.96H211.932V452H208.584V446.465H201.996ZM216.378 450.299C214.974 448.877 214.272 447.104 214.272 444.98C214.272 442.856 214.974 441.092 216.378 439.688C217.8 438.266 219.573 437.555 221.697 437.555C223.821 437.555 225.594 438.266 227.016 439.688C228.438 441.092 229.149 442.856 229.149 444.98C229.149 447.104 228.438 448.877 227.016 450.299C225.576 451.703 223.803 452.405 221.697 452.405C219.591 452.405 217.818 451.703 216.378 450.299ZM221.697 440.93C220.581 440.93 219.645 441.317 218.889 442.091C218.133 442.865 217.755 443.828 217.755 444.98C217.755 446.132 218.133 447.095 218.889 447.869C219.645 448.643 220.581 449.03 221.697 449.03C222.813 449.03 223.749 448.643 224.505 447.869C225.261 447.095 225.639 446.132 225.639 444.98C225.639 443.828 225.261 442.865 224.505 442.091C223.749 441.317 222.813 440.93 221.697 440.93ZM231.475 437.96H239.035C240.295 437.96 241.339 438.293 242.167 438.959C243.049 439.643 243.526 440.48 243.598 441.47C243.616 441.524 243.625 441.632 243.625 441.794C243.625 442.892 243.211 443.801 242.383 444.521C243.643 445.277 244.273 446.339 244.273 447.707C244.273 448.967 243.823 450.002 242.923 450.812C242.023 451.604 240.907 452 239.575 452H231.475V437.96ZM234.823 446.114V448.814H239.548C240.052 448.868 240.412 448.661 240.628 448.193C240.844 447.707 240.844 447.23 240.628 446.762C240.412 446.276 240.052 446.06 239.548 446.114H234.823ZM239.035 441.146H234.823V443.387H239.035C239.359 443.387 239.62 443.288 239.818 443.09C240.034 442.874 240.142 442.595 240.142 442.253C240.142 441.929 240.034 441.668 239.818 441.47C239.62 441.254 239.359 441.146 239.035 441.146ZM252.664 437.555C254.248 437.555 255.67 438.059 256.93 439.067V437.96H260.278V452H256.93V450.893C255.67 451.901 254.248 452.405 252.664 452.405C250.738 452.405 249.109 451.703 247.777 450.299C246.481 448.877 245.833 447.104 245.833 444.98C245.833 442.856 246.481 441.092 247.777 439.688C249.091 438.266 250.72 437.555 252.664 437.555ZM255.769 442.091C255.049 441.317 254.158 440.93 253.096 440.93C252.016 440.93 251.116 441.317 250.396 442.091C249.676 442.865 249.316 443.828 249.316 444.98C249.316 446.132 249.676 447.095 250.396 447.869C251.116 448.643 252.016 449.03 253.096 449.03C254.158 449.03 255.049 448.643 255.769 447.869C256.507 447.077 256.876 446.114 256.876 444.98C256.876 443.846 256.507 442.883 255.769 442.091ZM266.49 446.465V452H263.142V437.96H266.49V443.252H273.078V437.96H276.426V452H273.078V446.465H266.49ZM289.215 443.63L282.087 452H279.279V437.96H282.627V446.411L289.755 437.96H292.563V452H289.215V443.63ZM298.682 452H294.767L298.142 447.194C297.206 446.852 296.45 446.276 295.874 445.466C295.316 444.656 295.037 443.738 295.037 442.712C295.037 441.344 295.505 440.219 296.441 439.337C297.377 438.419 298.547 437.96 299.951 437.96H307.781V452H304.433V447.491H301.868L298.682 452ZM298.547 442.712C298.547 443.162 298.682 443.54 298.952 443.846C299.222 444.134 299.555 444.278 299.951 444.278H304.433V441.173H299.951C299.555 441.173 299.222 441.326 298.952 441.632C298.682 441.92 298.547 442.28 298.547 442.712Z" fill="#020D22"/>
</svg>
