<svg width="137" height="21" viewBox="0 0 137 21" fill="none" xmlns="http://www.w3.org/2000/svg">
<path d="M8.24 20.336C6.76533 20.336 5.412 20.112 4.18 19.664C2.96667 19.1973 1.996 18.516 1.268 17.62C0.54 16.724 0.176 15.6413 0.176 14.372L0.204 13.756H4.32L4.292 14.204C4.292 15.0253 4.656 15.6787 5.384 16.164C6.112 16.6493 7.12933 16.892 8.436 16.892C9.81733 16.892 10.816 16.7147 11.432 16.36C12.048 15.9867 12.356 15.492 12.356 14.876C12.356 14.3347 12.1507 13.8867 11.74 13.532C11.348 13.1587 10.844 12.8693 10.228 12.664C9.63067 12.44 8.8 12.1787 7.736 11.88C6.224 11.4507 5.00133 11.04 4.068 10.648C3.13467 10.256 2.332 9.67733 1.66 8.912C0.988 8.128 0.652 7.10133 0.652 5.832C0.652 4.07733 1.36133 2.74267 2.78 1.828C4.19867 0.913333 6.084 0.456 8.436 0.456C10.6573 0.456 12.468 0.932 13.868 1.884C15.2867 2.81733 15.996 4.22667 15.996 6.112V6.448H11.964V6.196C11.964 5.48667 11.6373 4.92667 10.984 4.516C10.3493 4.10533 9.48133 3.9 8.38 3.9C7.204 3.9 6.29867 4.05867 5.664 4.376C5.048 4.69333 4.74 5.132 4.74 5.692C4.74 6.12133 4.92667 6.49467 5.3 6.812C5.67333 7.11067 6.14 7.36267 6.7 7.568C7.26 7.75467 8.05333 7.988 9.08 8.268C10.6107 8.67867 11.8613 9.08933 12.832 9.5C13.8213 9.892 14.6707 10.48 15.38 11.264C16.0893 12.048 16.444 13.0747 16.444 14.344C16.444 16.3973 15.7067 17.9093 14.232 18.88C12.776 19.8507 10.7787 20.336 8.24 20.336ZM17.2558 0.791999H21.3158V10.06L30.1918 0.791999H35.1198L27.6158 8.604L35.2318 20H30.4158L24.8998 11.46L21.3158 14.428V20H17.2558V0.791999ZM40.6268 12.244L33.2908 0.791999H37.9108L42.6988 8.632H42.8388L47.5708 0.791999H51.9668L44.6868 12.244V20H40.6268V12.244Z" fill="#005BFF"/>
<path d="M51.5466 0.791999H62.5506C63.5586 0.791999 64.4733 0.997332 65.2946 1.408C66.1159 1.8 66.7599 2.36 67.2266 3.088C67.6933 3.79733 67.9266 4.61867 67.9266 5.552C67.9266 6.616 67.6279 7.54 67.0306 8.324C66.4519 9.08933 65.7053 9.62133 64.7906 9.92V10.032C65.8733 10.2373 66.7506 10.7693 67.4226 11.628C68.1133 12.468 68.4586 13.4667 68.4586 14.624C68.4586 16.36 67.8986 17.6947 66.7786 18.628C65.6773 19.5427 64.2679 20 62.5506 20H51.5466V0.791999ZM61.4026 8.464C62.1493 8.464 62.7279 8.27733 63.1386 7.904C63.5493 7.512 63.7546 7.01733 63.7546 6.42C63.7546 5.71067 63.5586 5.16933 63.1666 4.796C62.7933 4.42267 62.2706 4.236 61.5986 4.236H55.6346V8.464H61.4026ZM61.8786 16.556C62.5879 16.556 63.1666 16.3507 63.6146 15.94C64.0626 15.5293 64.2866 14.9413 64.2866 14.176C64.2866 13.4853 64.0626 12.9253 63.6146 12.496C63.1666 12.0667 62.5133 11.852 61.6546 11.852H55.6346V16.556H61.8786ZM69.4576 0.791999H84.5496V4.236H73.5176V8.464H83.3176V11.908H73.5176V16.556H84.7176V20H69.4576V0.791999ZM90.4854 4.292H84.5494V0.791999H100.481V4.292H94.5454V20H90.4854V4.292ZM109.182 20.336C106.102 20.336 103.713 19.5147 102.014 17.872C100.316 16.2107 99.4664 13.7187 99.4664 10.396C99.4664 7.07333 100.316 4.59067 102.014 2.948C103.713 1.28667 106.102 0.456 109.182 0.456C112.281 0.456 114.68 1.28667 116.378 2.948C118.077 4.59067 118.926 7.07333 118.926 10.396C118.926 13.7187 118.077 16.2107 116.378 17.872C114.68 19.5147 112.281 20.336 109.182 20.336ZM109.182 16.892C111.012 16.892 112.393 16.3693 113.326 15.324C114.278 14.26 114.754 12.7573 114.754 10.816V9.976C114.754 8.03467 114.278 6.54133 113.326 5.496C112.393 4.432 111.012 3.9 109.182 3.9C107.353 3.9 105.972 4.432 105.038 5.496C104.105 6.54133 103.638 8.03467 103.638 9.976V10.816C103.638 12.7573 104.105 14.26 105.038 15.324C105.972 16.3693 107.353 16.892 109.182 16.892ZM119.663 0.791999H123.611L131.003 11.236C131.227 11.5533 131.601 12.1787 132.123 13.112L132.263 13.028L132.179 11.404V0.791999H136.127V20H132.179L124.759 9.472C124.405 8.968 124.041 8.352 123.667 7.624L123.527 7.708C123.583 8.51067 123.611 9.07067 123.611 9.388V20H119.663V0.791999Z" fill="#0F0D0D"/>
</svg>
